<svg xmlns="http://www.w3.org/2000/svg" xmlns:xlink="http://www.w3.org/1999/xlink" width="300" zoomAndPan="magnify" viewBox="0 0 224.87999 225" height="300" preserveAspectRatio="xMidYMid meet" version="1.2">
    <g id="228b282acd">
        <path style=" stroke:none;fill-rule:evenodd;fill:currentColor;fill-opacity:1;" d="M 3.136719 11.34375 C 2.265625 12.214844 1.898438 15.914062 2.175781 20.964844 C 2.96875 35.460938 8.890625 46.71875 20.164062 55.171875 C 25.070312 58.851562 29.375 61.339844 42.851562 68.28125 C 61.386719 77.828125 65.570312 80.398438 71.695312 86 C 74.984375 89.003906 78.960938 94.285156 80.6875 97.933594 C 87.265625 111.839844 82.667969 131.039062 69.34375 145.289062 C 67.996094 146.730469 66.890625 147.992188 66.890625 148.085938 C 66.890625 148.421875 69.292969 146.535156 72.074219 144.023438 C 88.90625 128.792969 97.183594 109.355469 94.824219 90.613281 C 93.34375 78.84375 88.648438 69.386719 80.183594 61.113281 C 72.578125 53.683594 66.410156 49.796875 44.523438 38.644531 C 30.667969 31.585938 26.121094 29.03125 20.566406 25.183594 C 15.882812 21.9375 9.449219 16.433594 7.058594 13.628906 C 4.84375 11.027344 3.964844 10.515625 3.136719 11.34375 M 188.960938 54.246094 C 179.324219 55.507812 173.265625 59.230469 170.167969 65.808594 C 168.296875 69.773438 167.789062 72.09375 167.804688 76.5625 C 167.84375 85.84375 172.199219 92.953125 180.480469 97.242188 C 182.214844 98.140625 186.960938 100.113281 191.023438 101.621094 C 195.085938 103.128906 199 104.722656 199.714844 105.164062 C 203.859375 107.707031 205.410156 112.304688 203.4375 116.207031 C 201.808594 119.441406 198.492188 120.742188 191.886719 120.742188 C 186.484375 120.742188 180.507812 119.550781 174.882812 117.351562 C 172.511719 116.425781 170.484375 115.847656 170.285156 116.046875 C 169.777344 116.554688 165.789062 127.226562 165.789062 128.074219 C 165.789062 129.121094 171.230469 131.523438 176.902344 132.980469 C 188.976562 136.078125 200.929688 135.578125 209.523438 131.605469 C 216.882812 128.207031 221.570312 120.589844 221.589844 112.007812 C 221.605469 105.734375 219.648438 101.003906 215.265625 96.699219 C 211.839844 93.335938 208.699219 91.582031 199.4375 87.863281 C 189.472656 83.859375 187.695312 82.808594 186.300781 80.074219 C 185.246094 78 185.21875 74.617188 186.246094 72.6875 C 187.886719 69.605469 192.460938 68.214844 198.632812 68.929688 C 201.816406 69.296875 210.003906 71.324219 213.09375 72.511719 C 213.847656 72.800781 213.710938 73.0625 217.058594 65.070312 C 218.199219 62.347656 219.136719 59.917969 219.136719 59.671875 C 219.136719 59.078125 213.976562 56.964844 209.902344 55.886719 C 202.800781 54.007812 195.289062 53.417969 188.960938 54.246094 M 130.507812 57.601562 C 130.296875 58.117188 129.378906 60.476562 128.46875 62.847656 C 126.15625 68.878906 123.28125 72.84375 119.230469 75.605469 L 117.78125 76.59375 L 117.773438 83.773438 L 121.878906 83.773438 C 124.871094 83.773438 125.992188 83.914062 126.015625 84.289062 C 126.035156 84.570312 126.125 92.699219 126.214844 102.355469 C 126.34375 116.070312 126.515625 120.492188 126.996094 122.574219 C 128.621094 129.574219 132.714844 133.699219 139.421875 135.09375 C 142.277344 135.683594 152.574219 135.371094 156.144531 134.585938 L 158.605469 134.042969 L 158.71875 127.992188 C 158.78125 124.660156 158.6875 121.9375 158.511719 121.9375 C 158.335938 121.9375 157.546875 122.128906 156.757812 122.359375 C 154.210938 123.109375 149.625 122.90625 147.769531 121.957031 C 144.621094 120.351562 144.667969 120.652344 144.535156 101.113281 L 144.414062 83.773438 L 157.167969 83.773438 L 157.167969 71.875 L 144.46875 71.875 L 144.355469 64.382812 L 144.242188 56.894531 L 137.570312 56.78125 C 130.96875 56.671875 130.894531 56.679688 130.507812 57.601562 M 7.757812 58.40625 C 6.648438 60.480469 8.160156 69.628906 10.542969 75.242188 C 13.320312 81.785156 18.652344 87.917969 25.441406 92.375 C 30.355469 95.601562 31.453125 96.160156 42.476562 101 C 52.597656 105.441406 56.058594 107.332031 60.410156 110.792969 C 63.835938 113.519531 66.390625 116.644531 67.914062 119.96875 C 69.136719 122.648438 70.15625 127.082031 70.15625 129.734375 C 70.15625 132.121094 69.1875 136.6875 68.324219 138.355469 C 67.125 140.675781 68.011719 140.148438 70.148438 137.265625 C 73.042969 133.363281 76.917969 125.351562 77.945312 121.140625 C 79 116.8125 79.082031 110.054688 78.125 105.808594 C 76.121094 96.90625 70.070312 89.507812 59.703125 83.265625 C 55.863281 80.957031 48.167969 77.21875 39.191406 73.300781 C 28.75 68.75 20.921875 64.828125 14.117188 60.742188 C 11.160156 58.964844 8.628906 57.511719 8.488281 57.511719 C 8.351562 57.511719 8.019531 57.914062 7.757812 58.40625 M 21.699219 99.925781 C 21.082031 101.285156 21.875 106.066406 23.347656 109.859375 C 26.621094 118.289062 33 123.453125 46.652344 128.730469 C 57.011719 132.734375 60.070312 136.007812 60.054688 143.070312 C 60.046875 144.878906 59.835938 147.082031 59.578125 147.972656 C 58.511719 151.695312 60.292969 149.777344 62.988281 144.304688 C 69.101562 131.902344 67.035156 120.882812 57.304688 113.96875 C 52.863281 110.816406 49.433594 109.246094 37.796875 105.046875 C 33.417969 103.464844 28.191406 101.449219 26.183594 100.566406 C 24.175781 99.679688 22.445312 98.957031 22.335938 98.957031 C 22.230469 98.957031 21.945312 99.394531 21.699219 99.925781 M 133.566406 159.382812 C 133.464844 159.667969 133.332031 161.558594 133.273438 163.589844 L 133.164062 167.285156 L 130.289062 167.488281 L 127.417969 167.695312 L 127.417969 173.4375 L 130.1875 173.5625 C 132.886719 173.679688 132.960938 173.710938 132.992188 174.792969 C 133.011719 175.402344 133.167969 181.347656 133.34375 188.007812 C 133.683594 201.082031 133.820312 201.886719 136.066406 204.136719 C 138.316406 206.382812 145.089844 207.152344 149.289062 205.636719 C 150.640625 205.148438 150.640625 205.144531 150.519531 202.632812 C 150.410156 200.378906 150.3125 200.125 149.578125 200.234375 C 147.253906 200.578125 144.042969 200.34375 142.882812 199.742188 C 140.652344 198.585938 140.582031 198.199219 140.492188 186.160156 C 140.449219 180.066406 140.5 174.757812 140.609375 174.363281 C 140.785156 173.730469 141.394531 173.644531 145.707031 173.644531 L 150.605469 173.644531 L 150.605469 167.515625 L 145.617188 167.398438 L 140.632812 167.285156 L 140.714844 163.785156 C 140.835938 158.808594 140.882812 158.871094 137.003906 158.871094 C 134.777344 158.871094 133.695312 159.03125 133.566406 159.382812 M 100.558594 166.316406 C 93.824219 167.429688 88.277344 172.800781 86.394531 180.023438 C 85.550781 183.257812 85.570312 190.066406 86.429688 192.960938 C 88.535156 200.058594 93.1875 204.660156 99.636719 206.015625 C 104.367188 207.011719 110.285156 206.242188 114.171875 204.128906 C 123.179688 199.222656 126.59375 186.34375 121.652344 175.894531 C 119.386719 171.109375 115.574219 168.152344 109.738281 166.660156 C 106.367188 165.796875 104.175781 165.714844 100.558594 166.316406 M 58.882812 166.996094 C 56.28125 167.894531 53.433594 169.5625 52.148438 170.9375 C 51.601562 171.523438 51 172.003906 50.8125 172.003906 C 50.628906 172.003906 50.476562 170.875 50.476562 169.492188 L 50.476562 166.984375 L 48.117188 167.257812 C 46.816406 167.410156 45.152344 167.636719 44.417969 167.761719 L 43.082031 167.992188 L 43.1875 186.71875 L 43.292969 205.449219 L 50.886719 205.683594 L 50.886719 194.691406 C 50.890625 182.347656 51.1875 179.625 52.828125 176.96875 C 54.5625 174.167969 57.082031 173.027344 61.542969 173.027344 C 65.835938 173.027344 67.46875 173.808594 68.839844 176.511719 C 69.742188 178.292969 69.761719 178.640625 69.761719 191.992188 L 69.761719 205.652344 L 77.558594 205.652344 L 77.558594 190.871094 C 77.558594 177.214844 77.496094 175.90625 76.75 173.738281 C 75.691406 170.675781 72.707031 167.785156 69.671875 166.882812 C 66.832031 166.039062 61.484375 166.097656 58.882812 166.996094 M 166.402344 166.8125 C 158.488281 169.425781 154.324219 176.15625 154.304688 186.382812 C 154.285156 195.875 158.847656 203.054688 166.4375 205.472656 C 171.300781 207.023438 180.648438 206.558594 184.894531 204.5625 C 186.660156 203.730469 186.921875 203.101562 186.539062 200.578125 C 186.117188 197.792969 186.015625 197.75 182.59375 198.96875 C 180.230469 199.8125 178.539062 200.097656 175.15625 200.234375 C 171.160156 200.390625 170.578125 200.316406 168.5625 199.394531 C 164.773438 197.660156 163.273438 195.640625 162.277344 190.945312 C 161.957031 189.441406 161.695312 188.078125 161.691406 187.910156 C 161.6875 187.742188 167.632812 187.558594 174.902344 187.5 L 188.121094 187.390625 L 188.519531 186 C 189.101562 183.980469 188.234375 177.832031 186.984375 175.101562 C 185.550781 171.96875 182.992188 169.367188 179.800781 167.796875 C 177.300781 166.566406 176.738281 166.457031 172.566406 166.367188 C 169.671875 166.304688 167.453125 166.464844 166.402344 166.8125 M 201.574219 167.035156 C 196.96875 168.625 194.285156 172.226562 194.335938 176.738281 C 194.394531 181.714844 197.296875 185.261719 203.242188 187.621094 C 210.664062 190.566406 212.519531 192.019531 212.875 195.148438 C 213.289062 198.839844 211.027344 200.5 205.59375 200.484375 C 202.777344 200.476562 201.390625 200.230469 198.410156 199.207031 C 196.378906 198.507812 194.628906 198.019531 194.523438 198.125 C 194.292969 198.347656 194.40625 203.628906 194.644531 203.867188 C 195.132812 204.359375 199.761719 205.695312 202.375 206.101562 C 210.179688 207.320312 216.683594 205.128906 219.246094 200.417969 C 221.511719 196.253906 221.003906 191.421875 217.929688 187.929688 C 216.3125 186.089844 212.3125 183.820312 208.671875 182.667969 C 206.398438 181.953125 203.917969 180.6875 202.828125 179.6875 C 200.953125 177.96875 201.296875 173.910156 203.414062 172.785156 C 205.234375 171.816406 211.378906 172.09375 214.929688 173.304688 C 216.570312 173.867188 218 174.230469 218.113281 174.121094 C 218.222656 174.007812 218.3125 172.6875 218.3125 171.179688 C 218.3125 168.617188 218.246094 168.410156 217.226562 167.945312 C 213.367188 166.1875 205.375 165.722656 201.574219 167.035156 M 168.042969 172.613281 C 165.785156 173.410156 163.886719 175.730469 162.90625 178.894531 C 162.460938 180.34375 162.09375 181.695312 162.09375 181.902344 C 162.09375 182.121094 165.988281 182.230469 171.429688 182.167969 L 180.765625 182.058594 L 180.671875 180.414062 C 180.449219 176.546875 178.132812 173.328125 174.929688 172.4375 C 172.816406 171.851562 170.015625 171.921875 168.042969 172.613281 M 99.703125 173.542969 C 95.691406 175.636719 93.5625 180.0625 93.5625 186.3125 C 93.5625 190.710938 94.449219 193.898438 96.371094 196.425781 C 98.203125 198.839844 100.378906 200.019531 103.394531 200.238281 C 108.269531 200.589844 111.742188 198.558594 114.078125 193.988281 C 115.460938 191.28125 115.511719 191.019531 115.511719 186.621094 C 115.511719 181.449219 115.050781 179.496094 113.152344 176.65625 C 110.378906 172.507812 104.355469 171.109375 99.703125 173.542969 "/>
    </g>
</svg>